<?xml version="1.0" encoding="UTF-8" standalone="no"?>
<svg
   xmlns:dc="http://purl.org/dc/elements/1.1/"
   xmlns:cc="http://creativecommons.org/ns#"
   xmlns:rdf="http://www.w3.org/1999/02/22-rdf-syntax-ns#"
   xmlns:svg="http://www.w3.org/2000/svg"
   xmlns="http://www.w3.org/2000/svg"
   xmlns:sodipodi="http://sodipodi.sourceforge.net/DTD/sodipodi-0.dtd"
   xmlns:inkscape="http://www.inkscape.org/namespaces/inkscape"
   width="16"
   height="16"
   version="1.1"
   viewBox="0 0 16 16"
   id="svg6"
   sodipodi:docname="orbit_camera_icon.svg"
   inkscape:version="0.92.3 (2405546, 2018-03-11)">
  <metadata
     id="metadata12">
    <rdf:RDF>
      <cc:Work
         rdf:about="">
        <dc:format>image/svg+xml</dc:format>
        <dc:type
           rdf:resource="http://purl.org/dc/dcmitype/StillImage" />
      </cc:Work>
    </rdf:RDF>
  </metadata>
  <defs
     id="defs10" />
  <sodipodi:namedview
     pagecolor="#ffffff"
     bordercolor="#666666"
     borderopacity="1"
     objecttolerance="10"
     gridtolerance="10"
     guidetolerance="10"
     inkscape:pageopacity="0"
     inkscape:pageshadow="2"
     inkscape:window-width="1366"
     inkscape:window-height="767"
     id="namedview8"
     showgrid="false"
     inkscape:zoom="14.75"
     inkscape:cx="0.87775556"
     inkscape:cy="9.1292611"
     inkscape:window-x="0"
     inkscape:window-y="0"
     inkscape:window-maximized="1"
     inkscape:current-layer="svg6" />
  <path
     style="opacity:1;fill:none;fill-opacity:1;fill-rule:nonzero;stroke:#fc9c9c;stroke-width:1.35500002;stroke-linecap:round;stroke-linejoin:miter;stroke-miterlimit:3.79999995;stroke-dasharray:none;stroke-dashoffset:0;stroke-opacity:1;paint-order:markers stroke fill"
     id="path819"
     sodipodi:type="arc"
     sodipodi:cx="8.0677948"
     sodipodi:cy="8.0338993"
     sodipodi:rx="7.3107953"
     sodipodi:ry="7.3107953"
     sodipodi:start="0"
     sodipodi:end="6.2779493"
     sodipodi:open="true"
     d="M 15.37859,8.0338993 A 7.3107953,7.3107953 0 0 1 8.0773646,15.344688 7.3107953,7.3107953 0 0 1 0.75702455,8.053039 7.3107953,7.3107953 0 0 1 8.0390853,0.72316037 7.3107953,7.3107953 0 0 1 15.37849,7.9956201" />
  <g
     transform="matrix(0.75762352,0,0,0.75762352,2.4098718,-783.34986)"
     id="g4">
    <path
       d="M 9,1038.4 A 3,3 0 0 0 6.0117,1041.1774 3,3 0 0 0 4,1040.4 a 3,3 0 0 0 -3,3 3,3 0 0 0 2,2.8243 v 2.1757 c 0,0.554 0.44599,1 1,1 h 6 c 0.55401,0 1,-0.446 1,-1 v -1 l 3,2 v -6 l -3,2 v -1.7695 a 3,3 0 0 0 1,-2.2305 3,3 0 0 0 -3,-3 z"
       id="path2"
       inkscape:connector-curvature="0"
       style="fill:#fc9c9c" />
  </g>
</svg>
